<?xml version="1.0" encoding="utf-8"?>
<!-- Generator: Adobe Illustrator 27.9.0, SVG Export Plug-In . SVG Version: 6.00 Build 0)  -->
<svg version="1.1" id="Layer_1" xmlns="http://www.w3.org/2000/svg" xmlns:xlink="http://www.w3.org/1999/xlink" x="0px" y="0px"
	 viewBox="0 0 138 81" style="enable-background:new 0 0 138 81;" xml:space="preserve">
<style type="text/css">
	.st0{fill:#E5E5E5;}
	.st1{fill:#3F3D56;}
	.st2{fill:#ECE74C;}
	.st3{fill:#9F616A;enable-background:new    ;}
	.st4{fill:#E4E4E4;enable-background:new    ;}
</style>
<path class="st0" d="M122.9,27L122.9,27c-0.9-5.9-1.1-11.8-0.7-17.7l0.7-9.8l0,0C119.1,7.1,120,17,122.9,27L122.9,27z"/>
<path class="st0" d="M125.9,28.7L125.9,28.7c-0.4-3.5-0.5-7-0.3-10.5l0.3-5.8l0,0C124,16.8,124.5,22.7,125.9,28.7z"/>
<path class="st1" d="M137.9,35.9v3.3c0,0.5-0.4,1-1,1h-1.6c-0.2,0-0.3,0.1-0.3,0.3l0,0v26.8c0,0.5-0.4,1-1,1h-19.9c-0.5,0-1-0.4-1-1
	V40.5c0-0.2-0.1-0.3-0.3-0.3h-2c-0.5,0-1-0.4-1-1v-3.3c0-0.5,0.4-1,1-1l0,0H137C137.5,34.9,137.9,35.3,137.9,35.9z"/>
<rect x="113.1" y="40.8" class="st2" width="21.9" height="1"/>
<path class="st2" d="M135,55.2c-7.1,3.1-15.1,3.1-22.2,0v-6.9c7.2-2.4,15-2.4,22.2,0V55.2z"/>
<path class="st3" d="M123.6,46.3c-4.2-2.2-9.4-0.6-11.6,3.6c-0.2,0.4-0.4,0.9-0.6,1.4L91.9,53L90,65.1l27.5-2.8
	c4.6,1.1,9.3-1.7,10.4-6.3C128.9,52.1,127.1,48.1,123.6,46.3L123.6,46.3z"/>
<path class="st4" d="M7,28.5l-5.5,4.1c0,0-3.1,7.4,2.9,17.3c6,9.9,44,30.6,44,30.6L110,64.8l-8.8-17.2l-44.9,1.3
	C56.4,48.8,31,17.1,7,28.5z"/>
</svg>
