<?xml version="1.0" encoding="utf-8"?>
<!-- Generator: Adobe Illustrator 27.9.0, SVG Export Plug-In . SVG Version: 6.00 Build 0)  -->
<svg version="1.1" id="Layer_1" xmlns="http://www.w3.org/2000/svg" xmlns:xlink="http://www.w3.org/1999/xlink" x="0px" y="0px"
	 viewBox="0 0 104 109" style="enable-background:new 0 0 104 109;" xml:space="preserve">
<style type="text/css">
	.st0{fill:#E5E5E5;}
	.st1{fill:#3F3D56;}
	.st2{fill:#ECE74C;}
	.st3{fill:#FFB8B8;enable-background:new    ;}
	.st4{fill:#ECE74C;enable-background:new    ;}
</style>
<path class="st0" d="M12.6,28.1L12.6,28.1c-0.9-5.9-1.1-11.8-0.7-17.7l0.7-9.8l0,0C8.8,8.2,9.7,18.1,12.6,28.1z"/>
<path class="st0" d="M15.6,29.8L15.6,29.8c-0.4-3.5-0.5-7-0.3-10.5l0.3-5.8l0,0C13.7,17.9,14.2,23.8,15.6,29.8z"/>
<path class="st1" d="M28.6,37v3.3c0,0.5-0.4,1-1,1H26c-0.2,0-0.3,0.1-0.3,0.3l0,0v26.8c0,0.5-0.4,1-1,1H4.8c-0.5,0-1-0.4-1-1V41.6
	c0-0.2-0.1-0.3-0.3-0.3h-2c-0.5,0-1-0.4-1-1V37c0-0.5,0.4-1,1-1l0,0h26.2C28.2,36,28.6,36.4,28.6,37z"/>
<rect x="3.8" y="41.9" class="st2" width="21.9" height="1"/>
<path class="st2" d="M25.7,56.3c-7.1,3.1-15.1,3.1-22.2,0v-6.9c7.2-2.4,15-2.4,22.2,0V56.3z"/>
<path class="st3" d="M61.6,106.7L18.9,73c-0.3,0.1-0.7,0.2-1,0.3c-3,0.7-6.3,0.1-8.8-1.7c-2.6-1.8-4.3-4.6-4.6-7.7
	c-0.7-6,3.6-11.5,9.6-12.2c5.6-0.7,10.7,3,12,8.4c0.1,0.5,0.2,1,0.2,1.5l42.5,24.5L79.4,80l11.7,15.3L74.7,107
	C70.8,109.8,65.5,109.6,61.6,106.7z"/>
<path class="st4" d="M96.3,100.1L72,83.5l11.4-16.2c3.1-4.4,9-6,13.9-3.6l0,0c5,2.4,7.5,8,5.9,13.3L96.3,100.1z"/>
</svg>
