<?xml version="1.0" encoding="utf-8"?>
<!-- Generator: Adobe Illustrator 27.9.0, SVG Export Plug-In . SVG Version: 6.00 Build 0)  -->
<svg version="1.1" id="Layer_1" xmlns="http://www.w3.org/2000/svg" xmlns:xlink="http://www.w3.org/1999/xlink" x="0px" y="0px"
	 viewBox="0 0 138 81" style="enable-background:new 0 0 138 81;" xml:space="preserve">
<style type="text/css">
	.st0{fill:#E5E5E5;}
	.st1{fill:#3F3D56;}
	.st2{fill:#ECE74C;}
	.st3{fill:#FFB8B8;enable-background:new    ;}
	.st4{fill:#6185F7;enable-background:new    ;}
</style>
<path class="st0" d="M16.4,28c2.9-10,3.8-19.9,0-27.5l0,0l0.7,9.8C17.5,16.2,17.3,22.1,16.4,28L16.4,28L16.4,28z"/>
<path class="st0" d="M13.4,13.4L13.4,13.4l0.3,5.8c0.2,3.5,0.1,7-0.3,10.5l0,0C14.8,23.7,15.3,17.8,13.4,13.4z"/>
<path class="st1" d="M1.3,35.9h26.2l0,0c0.6,0,1,0.5,1,1v3.3c0,0.6-0.5,1-1,1h-2c-0.2,0-0.3,0.1-0.3,0.3v26.8c0,0.6-0.5,1-1,1H4.3
	c-0.6,0-1-0.5-1-1V41.5l0,0c0-0.2-0.1-0.3-0.3-0.3H1.4c-0.6,0-1-0.5-1-1v-3.3C0.4,36.3,0.8,35.9,1.3,35.9z"/>
<rect x="3.3" y="41.8" class="st2" width="21.9" height="1"/>
<path class="st2" d="M3.3,49.3c7.2-2.4,15-2.4,22.2,0v6.9c-7.1,3.1-15.1,3.1-22.2,0V49.3z"/>
<path class="st3" d="M13.7,46.3c-3.5,1.8-5.3,5.8-4.3,9.7c1.1,4.6,5.8,7.4,10.4,6.3l27.5,2.8L45.4,53l-19.5-1.7
	c-0.2-0.5-0.4-1-0.6-1.4C23.1,45.7,17.9,44.1,13.7,46.3L13.7,46.3z"/>
<path class="st4" d="M81,48.9l-44.9-1.3l-8.8,17.2l61.6,15.7c0,0,38-20.7,44-30.6s2.9-17.3,2.9-17.3l-5.5-4.1
	C106.3,17.1,80.9,48.8,81,48.9z"/>
</svg>
