<?xml version="1.0" encoding="utf-8"?>
<!-- Generator: Adobe Illustrator 28.0.0, SVG Export Plug-In . SVG Version: 6.00 Build 0)  -->
<svg width="436.2811" height="436.2811" version="1.1" id="Layer_1" xmlns="http://www.w3.org/2000/svg" xmlns:xlink="http://www.w3.org/1999/xlink" x="0px" y="0px"
	 viewBox="0 0 436.28 436.28" style="enable-background:new 0 0 436.28 436.28;" xml:space="preserve">
<style type="text/css">
	.compassPinPath0{fill:#FED900;}
	.compassPinPath1{fill:#39343C;}
	.compassPinPath2{fill:#403A3A;}
</style>
<g>
	<g>
		<path class="compassPinPath0" d="M31.5,425.75c-7.04,0-13.77-3.83-17.56-9.98c-3.78-6.14-4.05-13.41-0.74-19.95c0.04-0.07,0.08-0.15,0.12-0.22
			l138.02-242.11c0.44-0.78,1.09-1.42,1.87-1.87L395.32,13.6c0.07-0.04,0.15-0.08,0.22-0.12c3-1.52,6.15-2.28,9.36-2.28
			c7.11,0,13.87,3.89,17.64,10.15c3.76,6.25,3.93,13.59,0.46,20.13c-0.04,0.07-0.08,0.14-0.12,0.21l-141.2,238.52
			c-0.43,0.72-1.03,1.33-1.76,1.76L41.4,423.17c-0.07,0.04-0.14,0.08-0.21,0.12C38.11,424.92,34.85,425.75,31.5,425.75
			C31.5,425.75,31.5,425.75,31.5,425.75z"/>
		<path class="compassPinPath1" d="M404.9,16.2c10.83,0,19.55,11.88,13.69,22.94l-141.2,238.52L38.86,418.87c-2.46,1.3-4.95,1.88-7.35,1.88
			c-10.7,0-19.44-11.6-13.84-22.68l138.02-242.11L397.79,17.95C400.18,16.74,402.59,16.2,404.9,16.2 M404.9,6.2
			c-4,0-7.91,0.95-11.62,2.82c-0.15,0.08-0.3,0.15-0.44,0.24L150.73,147.28c-1.56,0.89-2.85,2.18-3.74,3.74L8.98,393.12
			c-0.08,0.14-0.16,0.29-0.24,0.44c-4.05,8-3.69,17.28,0.95,24.82c4.69,7.63,13.05,12.36,21.82,12.36c4.17,0,8.22-1.03,12.03-3.05
			c0.14-0.07,0.28-0.15,0.41-0.23l238.52-141.2c1.45-0.86,2.65-2.06,3.51-3.51l141.2-238.52c0.08-0.14,0.16-0.27,0.23-0.41
			c4.24-8.01,4.02-17.38-0.6-25.05C422.16,11.02,413.76,6.2,404.9,6.2L404.9,6.2z"/>
	</g>
	<g>
		<path class="compassPinPath2" d="M396.61,58.19c6.26-11.82-6.37-24.69-18.3-18.65l-213.13,121.5l22.12,22.12c-17.47,17.47-17.47,45.8,0,63.27
			c17.47,17.47,45.8,17.47,63.27,0l21.75,21.75L396.61,58.19z M234.33,231.01c-0.11,0.11-0.23,0.21-0.34,0.32
			c-6.96,6.35-16.95,7.51-25.02,3.5c-0.26-0.13-0.53-0.27-0.79-0.41c-0.09-0.05-0.18-0.1-0.27-0.15c-0.21-0.12-0.43-0.25-0.64-0.38
			c-0.55-0.34-1.1-0.7-1.63-1.1c-0.27-0.2-0.53-0.4-0.79-0.61c-0.16-0.13-0.32-0.26-0.48-0.4c-0.43-0.37-0.85-0.76-1.26-1.17
			c-0.14-0.14-0.27-0.27-0.4-0.41c-0.13-0.13-0.25-0.27-0.38-0.41c-7.57-8.36-7.69-21.07-0.37-29.58c0.24-0.28,0.49-0.55,0.74-0.82
			c0.13-0.14,0.27-0.28,0.4-0.41c8.74-8.74,22.9-8.74,31.63,0c8.74,8.74,8.74,22.9,0,31.63
			C234.61,230.74,234.47,230.87,234.33,231.01z"/>
		<path class="compassPinPath2" d="M230.58,203.13c-6.44-6.44-16.87-6.44-23.31,0c-0.1,0.1-0.2,0.2-0.3,0.3c-6.04,6.35-6.04,16.35,0,22.7
			c0.1,0.1,0.2,0.2,0.3,0.3c0.3,0.3,0.61,0.59,0.93,0.86c0.12,0.1,0.24,0.2,0.35,0.3c0.19,0.16,0.39,0.31,0.58,0.45
			c0.39,0.29,0.79,0.56,1.2,0.81c0.16,0.1,0.31,0.19,0.47,0.28c0.07,0.04,0.13,0.08,0.2,0.11c6.14,3.36,13.97,2.53,19.27-2.51
			c0.1-0.1,0.2-0.2,0.3-0.3C237.02,220,237.02,209.57,230.58,203.13z"/>
	</g>
</g>
</svg>
