<?xml version="1.0" encoding="utf-8"?>
<!-- Generator: Adobe Illustrator 27.9.0, SVG Export Plug-In . SVG Version: 6.00 Build 0)  -->
<svg version="1.1" id="Layer_1" xmlns="http://www.w3.org/2000/svg" xmlns:xlink="http://www.w3.org/1999/xlink" x="0px" y="0px"
	 viewBox="0 0 1590 140" style="enable-background:new 0 0 1590 140;" xml:space="preserve">
<style type="text/css">
	.st0{enable-background:new    ;}
	.st1{fill:#FFDD83;}
</style>
<g class="st0">
	<path class="st1" d="M1.2,70.5c0-43.9,28.3-69.7,61.9-69.7C80,0.9,93.5,9,102.2,18L88.3,34.9c-6.8-6.5-14.6-11.2-24.7-11.2
		c-20.2,0-35.3,17.3-35.3,45.9c0,29,13.7,46.4,34.7,46.4c11.5,0,20.3-5.4,27.5-13.1l14,16.6c-11,12.8-25.2,19.6-42.5,19.6
		C28.6,139.1,1.2,115,1.2,70.5z"/>
	<path class="st1" d="M112.4,69.5c0-43.4,24.3-68.6,59.6-68.6c35.3,0,59.6,25.4,59.6,68.6c0,43.2-24.3,69.7-59.6,69.7
		C136.7,139.1,112.4,112.7,112.4,69.5z M204.4,69.5c0-28.6-12.6-45.7-32.4-45.7c-19.8,0-32.4,17.1-32.4,45.7
		c0,28.4,12.6,46.6,32.4,46.6C191.8,116.1,204.4,97.9,204.4,69.5z"/>
	<path class="st1" d="M257.7,3.2h29.5l22.7,62.5c2.9,8.3,5.4,17.1,8.1,25.6h0.9c2.9-8.5,5.2-17.3,8.1-25.6l22.1-62.5h29.5v133.4
		h-24.3V81c0-12.6,2-31.1,3.4-43.7h-0.9l-10.8,31.3l-20.5,56h-15.3l-20.7-56l-10.6-31.3h-0.7c1.3,12.6,3.4,31.1,3.4,43.7v55.6h-23.9
		V3.2z"/>
	<path class="st1" d="M411.4,3.2h43.7c29.5,0,52.2,10.4,52.2,41.9c0,30.4-22.9,44.1-51.5,44.1h-17.8v47.3h-26.6V3.2z M454.1,68.2
		c18.4,0,27.2-7.7,27.2-23c0-15.5-9.7-20.7-28.1-20.7h-15.1v43.7H454.1z"/>
	<path class="st1" d="M524.8,69.5c0-43.4,24.3-68.6,59.6-68.6c35.3,0,59.6,25.4,59.6,68.6c0,43.2-24.3,69.7-59.6,69.7
		C549.1,139.1,524.8,112.7,524.8,69.5z M616.8,69.5c0-28.6-12.6-45.7-32.4-45.7S552,40.8,552,69.5c0,28.4,12.6,46.6,32.4,46.6
		S616.8,97.9,616.8,69.5z"/>
	<path class="st1" d="M661.3,119.7l15.3-18.4c9.5,8.8,22.1,14.8,33.8,14.8c13.9,0,21.2-5.9,21.2-15.3c0-9.9-8.1-13-20-18l-17.8-7.6
		c-13.5-5.6-27-16.4-27-35.8c0-21.8,19.1-38.5,46.1-38.5c15.5,0,31,6.1,41.8,17.1l-13.5,16.7c-8.5-7-17.3-11-28.3-11
		c-11.7,0-19.1,5.2-19.1,14c0,9.5,9.4,13,20.7,17.5l17.5,7.4c16.2,6.7,26.8,16.9,26.8,36.2c0,21.8-18.2,40.3-49,40.3
		C692,139.1,674.2,132.1,661.3,119.7z"/>
	<path class="st1" d="M782.4,3.2h81.7v22.3H809v30.8h46.8v22.3H809v35.6h57.1v22.3h-83.7V3.2z"/>
	<path class="st1" d="M927.3,70.5c0-43.9,28.3-69.7,61.9-69.7c16.9,0,30.4,8.1,39.1,17.1l-13.9,16.9c-6.8-6.5-14.6-11.2-24.7-11.2
		c-20.2,0-35.3,17.3-35.3,45.9c0,29,13.7,46.4,34.7,46.4c11.5,0,20.3-5.4,27.5-13.1l14,16.6c-11,12.8-25.2,19.6-42.5,19.6
		C954.7,139.1,927.3,115,927.3,70.5z"/>
	<path class="st1" d="M1038.5,69.5c0-43.4,24.3-68.6,59.6-68.6c35.3,0,59.6,25.4,59.6,68.6c0,43.2-24.3,69.7-59.6,69.7
		C1062.8,139.1,1038.5,112.7,1038.5,69.5z M1130.5,69.5c0-28.6-12.6-45.7-32.4-45.7s-32.4,17.1-32.4,45.7
		c0,28.4,12.6,46.6,32.4,46.6S1130.5,97.9,1130.5,69.5z"/>
	<path class="st1" d="M1183.8,3.2h82.1v22.3h-55.4v34.7h47.3v22.3h-47.3v54h-26.6V3.2z"/>
	<path class="st1" d="M1289.1,3.2h82.1v22.3h-55.4v34.7h47.3v22.3h-47.3v54h-26.6V3.2z"/>
	<path class="st1" d="M1394.4,3.2h81.7v22.3H1421v30.8h46.8v22.3H1421v35.6h57.1v22.3h-83.7V3.2z"/>
	<path class="st1" d="M1505.1,3.2h81.7v22.3h-55.1v30.8h46.8v22.3h-46.8v35.6h57.1v22.3h-83.7V3.2z"/>
</g>
</svg>
