<svg width="54%"  version="1.1" id="campass" xmlns="http://www.w3.org/2000/svg" xmlns:xlink="http://www.w3.org/1999/xlink" x="0px" y="0px"
                viewBox="0 0 1026 1026" style="enable-background:new 0 0 1026 1026;" xml:space="preserve">
            <style type="text/css">
                .compasspath1{fill:#39343C;}
                .compasspath2{fill:none;stroke:#FED900;stroke-width:8.4706;stroke-miterlimit:10;stroke-dasharray:41.2679,41.2679;}
                .compasspath3{fill:none;stroke:#39343C;stroke-width:8;stroke-miterlimit:10;}
                .compasspath4{fill:#403A3A;stroke:#FED900;stroke-width:2.4104;stroke-miterlimit:10;}
                .compasspath5{fill:#FED900;stroke:#403A3A;stroke-width:2.4104;stroke-miterlimit:10;}
            </style>
            <path class="compasspath1" d="M512.67,0.31c-283.32,0-513,229.68-513,513s229.68,513,513,513s513-229.68,513-513S795.99,0.31,512.67,0.31z
                M512.67,882.31c-203.79,0-369-165.21-369-369s165.21-369,369-369s369,165.21,369,369S716.46,882.31,512.67,882.31z"/>
            <g>
                <circle class="compasspath2" cx="512.67" cy="513.31" r="486"/>
            </g>
            <circle class="compasspath3" cx="512.67" cy="513.31" r="349.6"/>
            <g>
                <path class="compasspath4" d="M512.67,127.71c-5.98,0-10.82-4.85-10.82-10.82V64.94c0-5.98,4.85-10.82,10.82-10.82
                    c5.98,0,10.82,4.85,10.82,10.82v51.94C523.49,122.86,518.65,127.71,512.67,127.71z"/>
                <path class="compasspath5" d="M512.67,124.82c-4.38,0-7.94-3.56-7.94-7.94V64.94c0-4.38,3.56-7.94,7.94-7.94c4.38,0,7.94,3.56,7.94,7.94
                    v51.94C520.61,121.26,517.05,124.82,512.67,124.82z"/>
            </g>
            <g>
                <path class="compasspath4" d="M127.07,513.31c0,5.98-4.85,10.82-10.82,10.82H64.3c-5.98,0-10.82-4.85-10.82-10.82
                    c0-5.98,4.85-10.82,10.82-10.82h51.94C122.22,502.49,127.07,507.33,127.07,513.31z"/>
                <path class="compasspath5" d="M124.18,513.31c0,4.38-3.56,7.94-7.94,7.94H64.3c-4.38,0-7.94-3.56-7.94-7.94c0-4.38,3.56-7.94,7.94-7.94
                    h51.94C120.62,505.37,124.18,508.93,124.18,513.31z"/>
            </g>
            <g>
                <path class="compasspath4" d="M512.67,898.91c5.98,0,10.82,4.85,10.82,10.82v51.94c0,5.98-4.85,10.82-10.82,10.82
                    c-5.98,0-10.82-4.84-10.82-10.82v-51.94C501.85,903.75,506.69,898.91,512.67,898.91z"/>
                <path class="compasspath5" d="M512.67,901.8c4.38,0,7.94,3.56,7.94,7.94v51.94c0,4.38-3.56,7.94-7.94,7.94c-4.38,0-7.94-3.56-7.94-7.94
                    v-51.94C504.73,905.36,508.29,901.8,512.67,901.8z"/>
            </g>
            <g>
                <path class="compasspath4" d="M898.27,513.31c0-5.98,4.84-10.82,10.82-10.82h51.94c5.98,0,10.82,4.85,10.82,10.82
                    c0,5.98-4.85,10.82-10.82,10.82h-51.94C903.12,524.13,898.27,519.28,898.27,513.31z"/>
                <path class="compasspath5" d="M901.16,513.31c0-4.38,3.56-7.94,7.94-7.94h51.94c4.38,0,7.94,3.56,7.94,7.94c0,4.38-3.56,7.94-7.94,7.94
                    h-51.94C904.72,521.24,901.16,517.68,901.16,513.31z"/>
            </g>
            </svg>