<?xml version="1.0" encoding="utf-8"?>
<!-- Generator: Adobe Illustrator 28.0.0, SVG Export Plug-In . SVG Version: 6.00 Build 0)  -->
<svg version="1.1" id="Layer_1" xmlns="http://www.w3.org/2000/svg" xmlns:xlink="http://www.w3.org/1999/xlink" x="0px" y="0px"
	 viewBox="0 0 325 38" style="enable-background:new 0 0 325 38;" xml:space="preserve">
<style type="text/css">
	.st0{fill:#FFD900;}
	.st1{fill:#3E3A39;}
</style>
<g id="레이어_2">
	<g id="Layer_1_00000109727812248191434690000016984329010707573151_">
		<circle class="st0" cx="184.97" cy="19" r="18.47"/>
		<path class="st1" d="M185,1.09c-9.88-0.02-17.91,7.97-17.93,17.86s7.97,17.91,17.86,17.93c9.88,0.02,17.91-7.97,17.93-17.86
			c0-0.01,0-0.03,0-0.04C202.85,9.13,194.87,1.13,185,1.09z M185,36.18c-9.49,0-17.19-7.7-17.19-17.19c0-9.49,7.7-17.19,17.19-17.19
			c9.49,0,17.19,7.7,17.19,17.19C202.19,28.48,194.49,36.17,185,36.18z"/>
		<path class="st1" d="M175.16,15.37c0.23-0.64,0.23-1.35,0-1.99l-1.21,0.21c0.14,0.37,0.14,0.78,0,1.14
			c-0.27,0.71-1.06,1.07-1.77,0.81c-0.01,0-0.02-0.01-0.03-0.01c-0.69-0.16-1.12-0.85-0.97-1.54c0.01-0.04,0.02-0.07,0.03-0.11
			c0.11-0.34,0.33-0.64,0.63-0.84l-0.77-0.96c-0.51,0.37-0.89,0.9-1.07,1.5c-0.49,1.33,0.19,2.81,1.52,3.3
			c0.07,0.02,0.13,0.05,0.2,0.07c1.31,0.54,2.81-0.08,3.36-1.39C175.12,15.5,175.14,15.43,175.16,15.37z"/>
		<path class="st1" d="M173.26,12.4c1,1,2.63,1,3.63-0.01c0.08-0.08,0.15-0.16,0.22-0.25c0.99-1.02,0.97-2.64-0.05-3.63
			c-0.08-0.08-0.17-0.15-0.26-0.22c-0.51-0.45-1.17-0.68-1.85-0.67c-0.77,0.02-1.49,0.37-1.97,0.98c-0.98,1.1-0.88,2.78,0.21,3.75
			C173.22,12.37,173.24,12.38,173.26,12.4z M173.83,9.41c0.55-0.56,1.45-0.58,2.02-0.03c0.01,0.01,0.02,0.02,0.03,0.03
			c0.68,0.59,0.8,1.28,0.28,1.86c-0.22,0.22-0.51,0.34-0.82,0.35c-0.42-0.01-0.83-0.16-1.16-0.44
			C173.51,10.64,173.36,9.95,173.83,9.41z"/>
		<polygon class="st1" points="179.39,9.73 178.75,7.03 180.82,9.2 181.63,8.89 181.77,5.89 183.04,8.37 184.23,7.92 184.26,7.75 
			181.81,3.3 180.78,3.69 180.64,7.15 178.26,4.63 177.22,5.01 178.31,10.13 		"/>
		<path class="st1" d="M184.64,7.83v0.28l1.36,0.19l0.23-1.54h0.37c0.43,0.07,0.87,0.05,1.28-0.08c0.6-0.24,1.02-0.78,1.1-1.43
			c0.09-0.51-0.05-1.03-0.37-1.44c-0.47-0.46-1.1-0.72-1.76-0.73h-1.08h-0.45l-0.67,4.65l0.08,0.14L184.64,7.83z M186.55,4.27h0.36
			c0.55,0.08,0.85,0.4,0.78,0.86s-0.45,0.67-1.01,0.59l-0.39-0.06L186.55,4.27z"/>
		<polygon class="st1" points="184.32,7.89 184.26,7.75 184.23,7.92 		"/>
		<path class="st1" d="M190.26,9.87c1.19,0.78,2.78,0.45,3.56-0.73c0.07-0.1,0.13-0.21,0.18-0.32c0.32-0.57,0.44-1.23,0.32-1.88
			c-0.15-0.74-0.62-1.38-1.28-1.75c-1.28-0.74-2.91-0.31-3.65,0.97c-0.02,0.03-0.03,0.06-0.05,0.08c-0.76,1.2-0.4,2.79,0.79,3.55
			C190.17,9.82,190.21,9.84,190.26,9.87z M190.61,6.85c0.45-0.77,1.1-1.04,1.72-0.68c0.66,0.41,0.87,1.28,0.46,1.94
			c-0.02,0.04-0.05,0.08-0.08,0.11c-0.45,0.8-1.14,1.04-1.76,0.63c-0.27-0.16-0.45-0.43-0.51-0.73
			C190.34,7.69,190.4,7.24,190.61,6.85z"/>
		<path class="st1" d="M194.11,11.69c-0.26-0.46-0.36-0.99-0.28-1.52l-1.12,0.62c0.03,0.65,0.25,1.29,0.64,1.81
			c0.48,0.83,1.55,1.1,2.37,0.62c0.04-0.02,0.07-0.04,0.11-0.07c0.33-0.24,0.54-0.61,0.58-1.01c0.01-0.4-0.02-0.79-0.1-1.18
			c-0.09-0.51,0-0.68,0.15-0.81c0.22-0.12,0.49-0.05,0.63,0.15c0.21,0.34,0.32,0.73,0.31,1.13l1.03-0.4
			c-0.04-0.58-0.24-1.14-0.58-1.61c-0.24-0.29-0.54-0.53-0.89-0.68c-0.47-0.18-1.01-0.11-1.41,0.19c-0.5,0.36-0.73,0.98-0.59,1.58
			c0,0.1,0,0.31,0.1,0.6s0,0.64-0.15,0.77c-0.22,0.18-0.54,0.14-0.72-0.08C194.16,11.78,194.13,11.74,194.11,11.69z"/>
		<polygon class="st1" points="199.59,12.52 194.67,14.12 195.72,17.38 196.8,17.17 196.12,15.06 197.14,14.73 197.66,16.33 
			198.62,16.02 198.1,14.4 198.98,14.12 199.57,15.92 200.59,15.59 		"/>
		<path class="st1" d="M185,9.41c-5.29,0-9.58,4.29-9.58,9.58s4.29,9.58,9.58,9.58c5.29,0,9.58-4.29,9.58-9.58S190.3,9.41,185,9.41
			L185,9.41z M190.14,11.67c0.23,0.16,0.46,0.34,0.67,0.53l-0.19,0.22c-0.21-0.19-0.43-0.36-0.66-0.51L190.14,11.67z M188.67,10.79
			c0.26,0.12,0.51,0.25,0.76,0.4l-0.14,0.24l-0.73-0.37L188.67,10.79z M187.06,10.24c0.27,0.07,0.54,0.15,0.81,0.24l-0.09,0.27
			c-0.26-0.09-0.53-0.17-0.8-0.23L187.06,10.24z M185.36,10.01c0.28,0,0.57,0.03,0.85,0.08v0.28c-0.27,0-0.55,0-0.82-0.08
			L185.36,10.01z M185,11.53c0.3-0.01,0.56,0.21,0.58,0.51v1.62c-0.02,0.3-0.28,0.53-0.58,0.51c-0.3,0.02-0.56-0.21-0.59-0.51v-1.58
			c0.01-0.31,0.27-0.56,0.58-0.55C184.99,11.53,185,11.53,185,11.53z M184.55,10.02v0.3c-0.28,0-0.55,0-0.82,0.08v-0.28
			c0.26-0.05,0.52-0.08,0.78-0.09L184.55,10.02z M182.86,10.27v0.28c-0.26,0.06-0.53,0.14-0.78,0.23l-0.1-0.27
			c0.3-0.09,0.58-0.18,0.85-0.24H182.86z M181.21,10.79l0.12,0.26c-0.25,0.12-0.5,0.24-0.73,0.39l-0.14-0.24
			C180.7,11.04,180.95,10.91,181.21,10.79z M180.17,23.64l3.3-6.21l0.1-0.1l6.19-3.29c0.09-0.06,0.21-0.06,0.31,0l0,0
			c0.06,0.09,0.06,0.22,0,0.31l-3.29,6.15c-0.02,0.04-0.06,0.08-0.1,0.1l-6.19,3.33c-0.09,0.06-0.22,0.06-0.31,0
			C180.13,23.85,180.12,23.73,180.17,23.64z M179.74,11.69l0.17,0.23c-0.22,0.17-0.44,0.33-0.64,0.51l-0.19-0.22
			C179.28,12.03,179.5,11.85,179.74,11.69z M178.45,12.81l0.21,0.21c-0.19,0.19-0.37,0.4-0.54,0.62l-0.23-0.18
			C178.07,13.24,178.25,13.02,178.45,12.81z M177.4,14.1l0.24,0.15c-0.15,0.23-0.29,0.47-0.41,0.72l-0.27-0.14
			c0.14-0.18,0.33-0.44,0.44-0.67L177.4,14.1z M176.61,15.61l0.27,0.1c-0.1,0.26-0.19,0.52-0.27,0.78l-0.28-0.08
			c0.09-0.22,0.18-0.49,0.28-0.75L176.61,15.61z M176.14,17.24h0.28c-0.05,0.27-0.09,0.54-0.12,0.81h-0.28
			c-0.01-0.21,0.03-0.46,0.12-0.75L176.14,17.24z M176.01,19.02h0.28c0,0.27,0,0.55,0,0.82h-0.28
			C176.01,19.57,176.01,19.3,176.01,19.02z M176.37,21.59c-0.08-0.27-0.14-0.54-0.21-0.82h0.3c0.05,0.27,0.11,0.53,0.19,0.8
			L176.37,21.59z M177.01,23.18c-0.14-0.25-0.26-0.51-0.36-0.78l0.27-0.1c0.1,0.25,0.22,0.5,0.35,0.75L177.01,23.18z M177.94,24.6
			c-0.18-0.22-0.35-0.45-0.5-0.69l0.24-0.15c0.15,0.23,0.31,0.45,0.48,0.67L177.94,24.6z M179.12,25.89
			c-0.22-0.18-0.42-0.39-0.63-0.59l0.22-0.19c0.18,0.19,0.39,0.39,0.59,0.57L179.12,25.89z M178.03,19.68
			c-0.32-0.05-0.55-0.35-0.5-0.67c0.04-0.26,0.24-0.46,0.5-0.5h1.62c0.32,0.05,0.55,0.35,0.5,0.67c-0.04,0.26-0.24,0.46-0.5,0.5
			H178.03z M180.51,26.88c-0.25-0.14-0.49-0.3-0.72-0.46l0.17-0.23l0.69,0.45L180.51,26.88z M182.06,27.59
			c-0.27-0.09-0.54-0.19-0.8-0.31l0.12-0.27l0.77,0.31L182.06,27.59z M183.72,27.98c-0.28,0-0.57-0.09-0.84-0.15v-0.28l0.81,0.15
			L183.72,27.98z M185,28.07h-0.42v-0.3h0.84v0.3H185z M185.58,26.06c-0.02,0.3-0.28,0.53-0.58,0.51c-0.3,0.02-0.56-0.21-0.59-0.51
			v-1.72c0.03-0.3,0.29-0.53,0.59-0.51c0.3-0.01,0.56,0.21,0.58,0.51V26.06z M186.29,27.98V27.7c0.27,0,0.54-0.05,0.81-0.15
			l0.06,0.28c-0.35-0.04-0.63,0.01-0.87,0.05L186.29,27.98z M187.95,27.59l-0.1-0.27c0.26-0.09,0.52-0.19,0.77-0.31l0.13,0.26
			c-0.31,0.01-0.57,0.13-0.84,0.23L187.95,27.59z M189.5,26.88l-0.15-0.26c0.24-0.13,0.47-0.29,0.69-0.45l0.18,0.24
			c-0.27,0.05-0.51,0.22-0.76,0.36L189.5,26.88z M190.89,25.88l-0.19-0.22l0.6-0.57l0.21,0.21c-0.23,0.1-0.45,0.3-0.66,0.48
			L190.89,25.88z M190.34,19.68c-0.32-0.05-0.55-0.35-0.5-0.67c0.04-0.26,0.24-0.46,0.5-0.5h1.62c0.32,0.05,0.55,0.35,0.5,0.67
			c-0.04,0.26-0.24,0.46-0.5,0.5H190.34z M192.06,24.64l-0.22-0.18c0.17-0.21,0.32-0.44,0.48-0.67l0.24,0.15
			c-0.17,0.21-0.35,0.4-0.54,0.59L192.06,24.64z M192.98,23.22l-0.26-0.14c0.13-0.24,0.24-0.49,0.35-0.75l0.27,0.1
			c-0.14,0.17-0.27,0.42-0.4,0.68L192.98,23.22z M193.62,21.62l-0.28-0.08c0.08-0.27,0.14-0.54,0.19-0.81l0.28,0.06
			c-0.09,0.17-0.15,0.45-0.23,0.72L193.62,21.62z M193.98,19.05c0,0.28,0,0.58,0,0.86h-0.3c0-0.28,0-0.55,0-0.84l0,0H194
			L193.98,19.05z M193.98,18.17h-0.28c0-0.28,0-0.55-0.12-0.82h0.28c-0.04,0.19,0,0.48,0.03,0.76L193.98,18.17z M193.38,15.69
			c0.1,0.27,0.21,0.54,0.28,0.81l-0.28,0.08c-0.08-0.26-0.17-0.51-0.27-0.77L193.38,15.69z M192.6,14.17
			c0.15,0.24,0.3,0.49,0.42,0.75l-0.26,0.13c-0.13-0.24-0.27-0.48-0.41-0.71L192.6,14.17z M191.86,13.66
			c-0.17-0.21-0.35-0.42-0.54-0.62l0.21-0.21c0.19,0.21,0.39,0.42,0.57,0.64L191.86,13.66z"/>
		<path class="st1" d="M184.49,19.63c0.36,0.33,0.92,0.33,1.28,0l0.59,0.59l2.86-5.34l-5.36,2.84l0.58,0.59
			C184.1,18.69,184.12,19.27,184.49,19.63z M184.71,18.53c0.24-0.25,0.64-0.25,0.89,0c0.25,0.24,0.25,0.64,0,0.89
			c-0.24,0.25-0.64,0.25-0.89,0c0,0,0,0,0,0c-0.25-0.25-0.25-0.66,0-0.91V18.53z"/>
		<path class="st1" d="M185,23.96c-0.23-0.02-0.42,0.15-0.45,0.37v1.62c0.03,0.22,0.23,0.38,0.45,0.36
			c0.22,0.02,0.41-0.14,0.44-0.36c0,0,0,0,0,0v-1.62C185.42,24.11,185.23,23.95,185,23.96z M185.3,25.95c0,0.12-0.14,0.22-0.3,0.22
			s-0.3-0.1-0.3-0.22v-1.62c0.02-0.14,0.15-0.25,0.3-0.23c0.14-0.02,0.28,0.09,0.3,0.23V25.95z"/>
		<path class="st1" d="M185,14.03c0.22,0.01,0.42-0.15,0.44-0.37v-1.58c-0.02-0.22-0.21-0.39-0.44-0.37
			c-0.23-0.02-0.42,0.15-0.45,0.37v1.62C184.6,13.91,184.79,14.05,185,14.03z M184.67,12.08c0-0.12,0.13-0.22,0.3-0.22
			c0.17,0,0.3,0.1,0.3,0.22v1.62c0,0.12-0.14,0.22-0.3,0.22s-0.3-0.1-0.3-0.22V12.08z"/>
		<path class="st1" d="M192.29,18.99c0.01-0.22-0.15-0.42-0.37-0.44h-1.62c-0.22,0.02-0.39,0.21-0.37,0.44
			c-0.02,0.23,0.15,0.42,0.37,0.45h1.62C192.14,19.41,192.3,19.22,192.29,18.99z M190.3,19.29c-0.12,0-0.22-0.13-0.22-0.3
			s0.1-0.3,0.22-0.3h1.62c0.12,0,0.22,0.14,0.22,0.3c0,0.15-0.1,0.3-0.22,0.3H190.3z"/>
		<path class="st1" d="M179.62,18.5H178c-0.22,0.03-0.38,0.22-0.36,0.44c-0.02,0.22,0.14,0.42,0.36,0.45h1.62
			c0.22-0.03,0.39-0.22,0.37-0.45C180.01,18.72,179.84,18.52,179.62,18.5z M179.62,19.23H178c-0.12,0-0.22-0.13-0.22-0.3
			c0-0.17,0.1-0.3,0.22-0.3h1.62c0.14,0.02,0.25,0.15,0.23,0.3c0.04,0.14-0.04,0.29-0.18,0.34c-0.02,0.01-0.03,0.01-0.05,0.01V19.23
			z"/>
		<path class="st1" d="M172.71,21.48c0,0.32-0.26,0.58-0.58,0.58s-0.58-0.26-0.58-0.58s0.26-0.58,0.58-0.58l0,0
			C172.45,20.9,172.71,21.16,172.71,21.48z"/>
		<path class="st1" d="M198.52,21.48c0,0.32-0.26,0.58-0.58,0.58s-0.58-0.26-0.58-0.58s0.26-0.58,0.58-0.58l0,0
			C198.26,20.9,198.52,21.16,198.52,21.48z"/>
		<path class="st1" d="M185.54,18.97c0.01,0.21-0.16,0.39-0.37,0.4c0,0-0.01,0-0.01,0c-0.22,0-0.4-0.18-0.4-0.4
			c0-0.21,0.17-0.39,0.39-0.39c0,0,0.01,0,0.01,0c0.21-0.01,0.38,0.15,0.39,0.36C185.54,18.95,185.54,18.96,185.54,18.97z"/>
		<path class="st1" d="M176.37,27.59c-0.05-0.35-0.21-0.68-0.46-0.92c-0.51-0.5-1.32-0.49-1.82,0.02c-0.03,0.03-0.06,0.06-0.08,0.1
			c-0.57,0.51-0.62,1.39-0.11,1.96c0.01,0.01,0.01,0.01,0.02,0.02c0.27,0.28,0.63,0.46,1.01,0.49l-0.36,1.18
			c-0.68-0.09-1.3-0.42-1.76-0.92c-1.06-1.09-1.04-2.84,0.05-3.91c1.09-1.06,2.84-1.04,3.91,0.05c0.46,0.43,0.77,1,0.87,1.62
			L176.37,27.59z"/>
		<path class="st1" d="M181.05,29.9c0.16,0.66,0.07,1.36-0.24,1.97c-0.62,1.36-2.22,1.95-3.57,1.34c-1.36-0.62-1.95-2.22-1.34-3.57
			c0.04-0.08,0.08-0.16,0.12-0.23c0.64-1.33,2.24-1.88,3.57-1.24c0.03,0.02,0.06,0.03,0.09,0.05
			C180.36,28.54,180.86,29.16,181.05,29.9z M177.3,30.07c-0.21,0.39-0.28,0.85-0.18,1.28c0.06,0.3,0.26,0.57,0.53,0.72
			c0.63,0.4,1.28,0.12,1.75-0.69c0.44-0.65,0.27-1.54-0.38-1.98c-0.01-0.01-0.02-0.02-0.03-0.02
			C178.41,28.93,177.76,29.23,177.3,30.07z"/>
		<path class="st1" d="M183.08,31.76l1.57,0.22l-0.14,1.08l-1.57-0.21l-0.26,1.88l-1.36-0.18l0.71-5.14l3.12,0.42l-0.15,1.14
			l-1.77-0.23L183.08,31.76z"/>
		<path class="st1" d="M187.29,31.71l1.55-0.28l0.19,1.08l-1.55,0.28l0.33,1.86l-1.35,0.24l-0.93-5.14l3.12-0.55l0.21,1.13
			l-1.77,0.32L187.29,31.71z"/>
		<path class="st1" d="M191.18,30.07l1.48-0.81l0.49,0.9l-1.49,0.8l0.53,0.96l1.94-1.05l0.41,1.01l-3.01,1.63l-2.48-4.59l2.83-1.53
			l0.51,0.95l-1.66,0.89L191.18,30.07z"/>
		<path class="st1" d="M194.67,27.29l1.14-1.28l0.75,0.69l-1.13,1.28l0.8,0.75l1.49-1.63l0.73,0.84l-2.33,2.57l-3.85-3.53l2.17-2.36
			l0.8,0.73l-1.28,1.37L194.67,27.29z"/>
		<path class="st0" d="M76.59,29.83h-6.42l-1.49-13.08l-5.5,13.08H59.1l-5.41-13.01l-1.58,13.01h-5.36l3.56-24.41h5.14l6.22,15.02
			l6.28-15.06h5.14L76.59,29.83z"/>
		<path class="st0" d="M140.72,11.94c-2.18-1.49-3.56-2.04-5.06-2.04c-1.17-0.08-2.2,0.78-2.34,1.94c0,1.16,0.46,1.75,2.57,2.86
			c1.67,0.81,3.24,1.8,4.7,2.94c1.4,1.34,2.19,3.2,2.16,5.14c0,4.59-3.7,7.79-8.99,7.79c-3.05-0.03-6.02-0.96-8.54-2.69l0.69-5.95
			c1.72,1.76,3.98,2.9,6.42,3.24c1.31,0.29,2.61-0.53,2.9-1.84c0.04-0.18,0.06-0.35,0.06-0.53c0-1.05-0.62-1.72-2.45-2.72
			c-1.28-0.68-2.12-1.16-2.57-1.39c-2.95-1.67-4.2-3.65-4.2-6.67c-0.02-2.39,1.2-4.61,3.22-5.88c1.51-0.88,3.21-1.37,4.96-1.43
			c2.79-0.05,5.54,0.73,7.89,2.24L140.72,11.94z"/>
		<path class="st0" d="M42.94,8.7c-2.38-2.67-5.84-4.14-9.42-4c-7.09,0-12.47,5.64-12.47,13.01s5.24,12.85,12.47,12.85
			c7.59-0.06,12.73-5.36,12.73-13.18C46.24,14.18,45.06,11.1,42.94,8.7z M33.63,24.54c-3.78-0.07-6.8-3.19-6.73-6.98
			c0-3.72,3.01-6.73,6.73-6.73c3.72,0,6.73,3.01,6.73,6.73c0,0,0,0,0,0C40.42,21.35,37.41,24.47,33.63,24.54z"/>
		<path class="st0" d="M17.99,22.69c-2.82,2.63-7.25,2.47-9.88-0.35s-2.47-7.25,0.35-9.88c2.52-2.35,6.37-2.51,9.08-0.38l3.02-4.79
			c-2.37-1.75-5.25-2.66-8.2-2.57C5.54,4.71,0.01,10.23,0,17.05c0,0.11,0,0.23,0,0.34C0,24.93,4.74,30.17,11.8,30.5
			c3.19,0.18,6.34-0.79,8.88-2.72L17.99,22.69z"/>
		<polygon class="st0" points="151.51,24.68 151.51,19.58 159.39,19.58 159.39,14.82 151.51,14.82 151.51,10.41 160.29,10.41 
			160.29,5.39 145.29,5.39 145.29,29.83 160.29,29.83 160.29,24.68 		"/>
		<path class="st0" d="M94.62,7.39c-1.01-0.91-2.35-1.9-5.95-1.9h-9.83V29.9h6.42v-7.45l1.76,0.08c2.11,0.09,4.22-0.35,6.12-1.28
			c2.62-1.53,4.21-4.35,4.16-7.39C97.39,11.41,96.41,9.05,94.62,7.39z M86.83,17.46c-0.4,0-0.96,0-1.58,0v-6.9
			c0.62,0,1.28-0.08,1.7-0.08c2.57,0,4.12,1.35,4.12,3.55S89.48,17.46,86.83,17.46z"/>
		<path class="st0" d="M120.99,8.7c-2.38-2.68-5.84-4.14-9.42-4c-7.08,0-12.46,5.64-12.46,13.01s5.24,12.85,12.46,12.85
			c7.59,0,12.69-5.29,12.69-13.12C124.28,14.23,123.11,11.12,120.99,8.7z M111.68,24.54c-3.78-0.06-6.8-3.18-6.73-6.96
			c0-0.01,0-0.01,0-0.02c0-3.72,3.01-6.73,6.73-6.74c3.72,0,6.73,3.01,6.74,6.73c0,0,0,0.01,0,0.01
			C118.48,21.35,115.47,24.47,111.68,24.54z"/>
		<path class="st0" d="M264.05,15.78h7.37v5.14h-7.37v8.92h-6.42V5.42h14.74v5.37h-8.34L264.05,15.78z"/>
		<path class="st0" d="M281.68,15.78h7.39v5.14h-7.37v8.92h-6.42V5.42H290v5.37h-8.34L281.68,15.78z"/>
		<path class="st0" d="M227.17,22.69c-2.83,2.61-7.24,2.44-9.86-0.39c-2.61-2.83-2.44-7.24,0.39-9.86c2.52-2.32,6.35-2.48,9.04-0.36
			l3.04-4.79c-2.37-1.75-5.25-2.66-8.2-2.57c-6.82-0.03-12.37,5.47-12.4,12.29c0,0.13,0,0.26,0,0.39c0,7.49,4.74,12.78,11.79,13.12
			c3.19,0.18,6.34-0.79,8.88-2.72L227.17,22.69z"/>
		<polygon class="st0" points="298.91,24.68 298.91,19.58 306.78,19.58 306.78,14.82 298.91,14.82 298.91,10.41 307.68,10.41 
			307.68,5.39 292.69,5.39 292.69,29.83 307.68,29.83 307.68,24.68 		"/>
		<polygon class="st0" points="316.23,24.68 316.23,19.58 324.1,19.58 324.1,14.82 316.23,14.82 316.23,10.41 325,10.41 325,5.39 
			310.01,5.39 310.01,29.83 325,29.83 325,24.68 		"/>
		<path class="st0" d="M252.07,8.7c-2.38-2.68-5.84-4.14-9.42-4c-7.08,0-12.47,5.64-12.47,13.01s5.25,12.85,12.47,12.85
			c7.58,0,12.69-5.29,12.69-13.12C255.36,14.23,254.19,11.12,252.07,8.7z M242.82,24.54c-3.79-0.06-6.81-3.19-6.74-6.97c0,0,0,0,0,0
			c-0.16-3.72,2.72-6.87,6.44-7.03c3.72-0.16,6.87,2.72,7.03,6.44c0.01,0.2,0.01,0.39,0,0.59C249.61,21.35,246.6,24.47,242.82,24.54
			z"/>
	</g>
</g>
</svg>
