<?xml version="1.0" encoding="utf-8"?>
<!-- Generator: Adobe Illustrator 27.9.0, SVG Export Plug-In . SVG Version: 6.00 Build 0)  -->
<svg version="1.1" id="Layer_1" xmlns="http://www.w3.org/2000/svg" xmlns:xlink="http://www.w3.org/1999/xlink" x="0px" y="0px"
	 viewBox="0 0 50 50" style="enable-background:new 0 0 50 50;" xml:space="preserve">
<style type="text/css">
	.st0{fill:#FED900;}
</style>
<g>
	<path class="st0" d="M31.5,9.5L2.5,27c-1.1,0-2-0.9-2-2s0.9-2,2-2l29-17.5c1.1,0,2,0.9,2,2S32.6,9.5,31.5,9.5z"/>
</g>
<g>
	<path class="st0" d="M47.5,27h-45c-1.1,0-2-0.9-2-2s0.9-2,2-2h45c1.1,0,2,0.9,2,2S48.6,27,47.5,27z"/>
</g>
<g>
	<path class="st0" d="M32.5,45.5L2.5,27c-1.1,0-2-0.9-2-2s0.9-2,2-2l30,18.5c1.1,0,2,0.9,2,2S33.6,45.5,32.5,45.5z"/>
</g>
</svg>
