<?xml version="1.0" encoding="utf-8"?>
<!-- Generator: Adobe Illustrator 27.9.0, SVG Export Plug-In . SVG Version: 6.00 Build 0)  -->
<svg version="1.1" id="Layer_1" xmlns="http://www.w3.org/2000/svg" xmlns:xlink="http://www.w3.org/1999/xlink" x="0px" y="0px"
	 viewBox="0 0 50 50" style="enable-background:new 0 0 50 50;" xml:space="preserve">
<style type="text/css">
	.st0{fill:#FED900;}
</style>
<g>
	<g>
		<path class="st0" d="M47.5,12.5h-45c-1.1,0-2-0.9-2-2s0.9-2,2-2h45c1.1,0,2,0.9,2,2S48.6,12.5,47.5,12.5z"/>
	</g>
	<g>
		<path class="st0" d="M47.5,27h-45c-1.1,0-2-0.9-2-2s0.9-2,2-2h45c1.1,0,2,0.9,2,2S48.6,27,47.5,27z"/>
	</g>
	<g>
		<path class="st0" d="M47.5,41.5h-45c-1.1,0-2-0.9-2-2s0.9-2,2-2h45c1.1,0,2,0.9,2,2S48.6,41.5,47.5,41.5z"/>
	</g>
</g>
</svg>
