<?xml version="1.0" encoding="utf-8"?>
<!-- Generator: Adobe Illustrator 27.9.0, SVG Export Plug-In . SVG Version: 6.00 Build 0)  -->
<svg version="1.1" id="Layer_1" xmlns="http://www.w3.org/2000/svg" xmlns:xlink="http://www.w3.org/1999/xlink" x="0px" y="0px"
	 viewBox="0 0 400 311" style="enable-background:new 0 0 400 311;" xml:space="preserve">
<style type="text/css">
	.st0{fill:#CACACA;}
	.st1{fill:#E4E4E4;}
	.st2{fill:#FFB8B8;enable-background:new    ;}
	.st3{fill:#2F2E41;}
	.st4{fill:#6185F7;enable-background:new    ;}
	.st5{fill:#9F616A;enable-background:new    ;}
	.st6{fill:#F8C7FF;enable-background:new    ;}
</style>
<ellipse class="st0" cx="203.1" cy="127.4" rx="110.5" ry="23"/>
<rect x="196.6" y="138.7" class="st0" width="13" height="172"/>
<path class="st1" d="M382.6,199.6h-48c0,1.4-49.5,2.5-49.5,2.5c-0.8,0.6-1.5,1.3-2.1,2c-1.9,2.2-2.9,5.1-2.9,8v2
	c0,6.9,5.6,12.5,12.5,12.5h90c6.9,0,12.5-5.6,12.5-12.5v-2C395.1,205.2,389.5,199.6,382.6,199.6z"/>
<rect x="330.4" y="226.1" class="st1" width="13" height="84"/>
<path class="st1" d="M293.4,309.6c0,1.4,19.7,0.5,44,0.5s44,0.9,44-0.5s-19.7-12.5-44-12.5S293.4,308.2,293.4,309.6z"/>
<path class="st1" d="M17.2,192.4h37.5c0,1.6,41,2.9,41,2.9c0.9,0.7,1.7,1.5,2.5,2.3c2.2,2.6,3.4,5.9,3.4,9.3v2.3
	c0,8-6.5,14.6-14.6,14.6H17.2c-8,0-14.6-6.5-14.6-14.6v-2.3C2.6,198.9,9.1,192.4,17.2,192.4z"/>
<rect x="44.5" y="223.2" class="st1" width="15.1" height="87.4"/>
<path class="st1" d="M103.8,309.5c0,1.6-23,0.6-51.3,0.6s-51.3,1-51.3-0.6s23-14.6,51.3-14.6S103.8,307.8,103.8,309.5z"/>
<polygon class="st2" points="298.2,255.6 281.6,255.6 286.9,299.1 298.2,299.1 "/>
<path class="st3" d="M301.2,310h-36.4v-0.5c0-7.8,6.3-14.1,14.1-14.1l0,0h22.2L301.2,310z"/>
<polygon class="st2" points="264.9,255.6 248.3,255.6 253.6,299.1 264.9,299.1 "/>
<path class="st3" d="M267.9,310h-36.4v-0.5c0-7.8,6.3-14.1,14.1-14.1l0,0h22.2L267.9,310z"/>
<path class="st2" d="M309.6,170.6c4.4,1.8,9.4-0.5,11.1-4.9l18-21l-11-5.4l-12.5,15c-0.5-0.1-1-0.2-1.5-0.3c-4.7-0.6-9,2.7-9.6,7.4
	C303.6,165.4,305.9,169.2,309.6,170.6z"/>
<polygon class="st4" points="352.8,119.4 334.2,155.5 317.5,149.9 337.2,96 339,75.2 346.3,72.2 "/>
<circle class="st2" cx="365.4" cy="29.6" r="19.6"/>
<path class="st3" d="M369.1,32.5l3.1,0.7l5.9-4c5.9-4.1-4.1,17.1-4.1,17.1s10.8,6.1,18.2-17.4S376.8,2.7,365.1,1.1
	c-11.7-1.6-11.6-1-14.8,1.4c-3.2,2.4-3.9,15.7,6.7,10.9s11.5,7.1,11.5,7.1L369.1,32.5z"/>
<path class="st3" d="M331,157.7c0,0-33.9,20.9-41,28s-10,98.2-10,98.2l21.8,1.9l16.2-75.7c0,0,36.2-3.1,61.2-7.5
	s18.4-39.2,18.4-39.2L331,157.7z"/>
<path class="st3" d="M360,176.2l-43.3,23.6l-38,8.6l-9.2,68.1l-23.8,1.8c0,0,5.4-59.9,10-87.5c3.1-18.3,82.1-31,82.1-31l10.9-11
	L360,176.2z"/>
<path class="st4" d="M335.1,80.7l-9.7,79.2c0,0,74.8,22.3,73.5,8.2c-1.6-16.3-1.3-23.4-1.3-23.4V91.4c0-14.9-8.2-28.5-21.3-35.5l0,0
	l-20.6,0.3l-6.4,8.4C334.3,68.1,335.1,80.7,335.1,80.7z"/>
<path class="st5" d="M125.3,130c-0.3,0.3-0.7,0.6-1,0.9c-0.3,0.2-0.7,0.5-1,0.7c-5,3.4-11.8,2-15.2-3.1c-0.2-0.3-0.3-0.6-0.5-0.9
	l-54-4.8c-4.9-0.5-8.9-4.1-9.9-8.9l-3.9-19.6l19-3.1l3.5,11.7l47.7,11.3c0.4-0.3,0.8-0.6,1.2-0.9c0.4-0.2,0.7-0.4,1.1-0.6
	c5.4-2.8,12-0.6,14.8,4.8C129.2,121.6,128.5,126.6,125.3,130z"/>
<polygon class="st5" points="100.1,268 118.2,268 112.4,299.8 100.1,299.8 "/>
<path class="st3" d="M97,295.8h24.1l0,0l0,0c8.5,0,15.4,6.9,15.4,15.4v0.5H97V295.8z"/>
<path class="st3" d="M114.2,282.8c-0.1,0-0.3,0-0.4,0l-17-1.2c-0.4-0.1-0.7-0.2-1.1-0.3c-2.4-0.9-3.6-3.5-2.7-5.8l22.7-51
	c0.3-0.9,0.3-1.9-0.2-2.8c-0.4-0.9-1.2-1.6-2.2-1.8c-10.7-2.8-38.1-10.2-61.8-18.9c-10.1-3.7-16.5-9.1-19-16
	c-3.2-9.1,1.6-17.4,1.8-17.7l0.2-0.3l22.3,2l24.2,2.1l53,28.4c9.2,5,13,16.2,8.8,25.8l-24.4,54.8
	C117.7,281.7,116.1,282.7,114.2,282.8z"/>
<polygon class="st5" points="92.1,268 110.2,268 104.4,299.8 92.1,299.8 "/>
<path class="st3" d="M89,295.8h24.1l0,0l0,0c8.5,0,15.4,6.9,15.4,15.4v0.5H89V295.8z"/>
<path class="st3" d="M105.2,285.8c-0.1,0-0.3,0-0.4,0l-17-1.2c-0.4-0.1-0.7-0.2-1.1-0.3c-2.4-0.9-3.6-3.5-2.7-5.8l22.7-51
	c0.3-0.9,0.3-1.9-0.2-2.8c-0.4-0.9-1.2-1.6-2.2-1.8c-10.7-2.8-38.1-10.2-61.8-18.9c-10.1-3.7-11.5-9.1-14-16
	c-3.2-9.1,1.6-17.4,1.8-17.7v0.2l17.5,1.5l24.2,2.1l53,28.4c9.2,5,13,16.2,8.8,25.8l-24.4,54.8C108.7,284.7,107.1,285.7,105.2,285.8
	z"/>
<path class="st6" d="M64,170.6c-1.1,0.8-2.6,1.1-4,0.8l-29.4,3.9c-1.3-0.3-2.4-1.1-3.1-2.3s-0.9-2.7-0.5-4
	c4.5-15.8-8.5-32.5-8.6-54.3c-1.9-11.3,3.9-22.6,14.2-27.6l0.1-0.1l22.2,1.1c7.4,2,13.5,7.2,16.6,14.2c8.5,20.1-1.1,35.2,12.9,70.2
	c-3,7-19.8-1.8-21-1L64,170.6z"/>
<circle class="st5" cx="40.1" cy="54.1" r="24.6"/>
<path class="st3" d="M27.4,74.3C15.5,69.6,8.3,57.2,10.6,44.7c0.3-1.3,0.6-2.7,1.1-4c4-10.7,14-18,25.4-18.6
	c6.8-0.2,13.4,2,19.8,4.2c3.1,1.1,6.2,2.2,8.5,4.7c0.7,0.7,1.2,1.5,1.5,2.4c2,5.4-3.1,9.5-8,10.5c-4.3,0.8-8.7,0.2-12.9,1.2
	s-8.4,4.4-8,8.7c-0.7-2.3-4.3-2.5-5.8-0.7s-1.3,4.6-0.1,6.6s1.1,2,2.9,5.1c1.2,2.1-1.5,12.5-2.8,11.9L27.4,74.3z"/>
</svg>
