<?xml version="1.0" encoding="utf-8"?>
<!-- Generator: Adobe Illustrator 27.9.0, SVG Export Plug-In . SVG Version: 6.00 Build 0)  -->
<svg version="1.1" id="Layer_1" xmlns="http://www.w3.org/2000/svg" xmlns:xlink="http://www.w3.org/1999/xlink" x="0px" y="0px"
	 viewBox="0 0 400 311" style="enable-background:new 0 0 400 311;" xml:space="preserve">
<style type="text/css">
	.st0{fill:#CACACA;}
	.st1{fill:#FFB8B8;enable-background:new    ;}
	.st2{fill:#E4E4E4;}
	.st3{fill:#2F2E41;}
	.st4{fill:#ECE74C;enable-background:new    ;}
	.st5{fill:#9F616A;enable-background:new    ;}
	.st6{fill:#E4E4E4;enable-background:new    ;}
</style>
<ellipse class="st0" cx="206.3" cy="127.8" rx="110.5" ry="23"/>
<rect x="199.8" y="139.1" class="st0" width="13" height="172"/>
<path class="st1" d="M282.3,116.9c2.8-5.4,9.4-7.6,14.8-4.8c0.4,0.2,0.7,0.4,1.1,0.6c0.4,0.3,0.8,0.6,1.2,0.9l47.7-11.3l3.5-11.7
	l19,3.1l-3.9,19.6c-1,4.8-5,8.4-9.9,8.9l-54,4.8c-0.2,0.3-0.3,0.6-0.5,0.9c-3.4,5.1-10.2,6.5-15.2,3.1c-0.3-0.2-0.7-0.5-1-0.7
	c-0.3-0.3-0.7-0.6-1-0.9C280.9,126,280.2,121,282.3,116.9z"/>
<path class="st2" d="M385.8,200h-48c0,1.4-49.5,2.5-49.5,2.5c-0.8,0.6-1.5,1.3-2.1,2c-1.9,2.2-2.9,5.1-2.9,8v2
	c0,6.9,5.6,12.5,12.5,12.5h90c6.9,0,12.5-5.6,12.5-12.5v-2C398.3,205.6,392.7,200,385.8,200z"/>
<rect x="333.6" y="226.5" class="st2" width="13" height="84"/>
<path class="st2" d="M296.6,310c0,1.4,19.7,0.5,44,0.5s44,0.9,44-0.5s-19.7-12.5-44-12.5S296.6,308.6,296.6,310z"/>
<polygon class="st1" points="309.3,299.2 297,299.2 291.2,267.4 309.3,267.4 "/>
<path class="st3" d="M312.4,311.1h-39.5v-0.5c0-8.5,6.9-15.4,15.4-15.4l0,0l0,0h24.1V311.1z"/>
<path class="st3" d="M291,279.5l-24.4-54.8c-4.2-9.6-0.4-20.8,8.8-25.8l53-28.4l24.2-2.1l22.3-2l0.2,0.3c0.2,0.3,5,8.6,1.8,17.7
	c-2.5,6.9-8.9,12.3-19,16c-23.7,8.7-51.1,16.1-61.8,18.9c-1,0.2-1.8,0.9-2.2,1.8c-0.5,0.9-0.5,1.9-0.2,2.8l22.7,51
	c0.9,2.3-0.3,4.9-2.7,5.8c-0.4,0.1-0.7,0.2-1.1,0.3l-17,1.2c-0.1,0-0.3,0-0.4,0C293.3,282.1,291.7,281.1,291,279.5z"/>
<polygon class="st1" points="317.3,299.2 305,299.2 299.2,267.4 317.3,267.4 "/>
<path class="st3" d="M320.4,311.1h-39.5v-0.5c0-8.5,6.9-15.4,15.4-15.4l0,0l0,0h24.1V311.1z"/>
<path class="st3" d="M300,282.5l-24.4-54.8c-4.2-9.6-0.4-20.8,8.8-25.8l53-28.4l24.2-2.1l17.5-1.5v-0.2c0.2,0.3,5,8.6,1.8,17.7
	c-2.5,6.9-3.9,12.3-14,16c-23.7,8.7-51.1,16.1-61.8,18.9c-1,0.2-1.8,0.9-2.2,1.8c-0.5,0.9-0.5,1.9-0.2,2.8l22.7,51
	c0.9,2.3-0.3,4.9-2.7,5.8c-0.4,0.1-0.7,0.2-1.1,0.3l-17,1.2c-0.1,0-0.3,0-0.4,0C302.3,285.1,300.7,284.1,300,282.5z"/>
<path class="st4" d="M346,170.9c-1.2-0.8-18,8-21,1c14-35,4.4-50.1,12.9-70.2c3.1-7,9.2-12.2,16.6-14.2l22.2-1.1l0.1,0.1
	c10.3,5,16.1,16.3,14.2,27.6c-0.1,21.8-13.1,38.5-8.6,54.3c0.4,1.3,0.2,2.8-0.5,4s-1.8,2-3.1,2.3l-29.4-3.9c-1.4,0.3-2.9,0-4-0.8
	L346,170.9z"/>
<circle class="st1" cx="369.3" cy="53.5" r="24.6"/>
<path class="st3" d="M377.2,76.1c-1.3,0.6-4-9.8-2.8-11.9c1.8-3.1,1.7-3.1,2.9-5.1s1.4-4.8-0.1-6.6s-5.1-1.6-5.8,0.7
	c0.4-4.3-3.8-7.7-8-8.7s-8.6-0.4-12.9-1.2c-4.9-1-10-5.1-8-10.5c0.3-0.9,0.8-1.7,1.5-2.4c2.3-2.5,5.4-3.6,8.5-4.7
	c6.4-2.2,13-4.4,19.8-4.2c11.4,0.6,21.4,7.9,25.4,18.6c0.5,1.3,0.8,2.7,1.1,4c2.3,12.5-4.9,24.9-16.8,29.6L377.2,76.1z"/>
<path class="st2" d="M17.4,192.8h37.5c0,1.6,41,2.9,41,2.9c0.9,0.7,1.7,1.5,2.5,2.3c2.2,2.6,3.4,5.9,3.4,9.3v2.3
	c0,8-6.5,14.6-14.6,14.6H17.4c-8,0-14.6-6.5-14.6-14.6v-2.3C2.8,199.3,9.3,192.8,17.4,192.8z"/>
<rect x="44.7" y="223.6" class="st2" width="15.1" height="87.4"/>
<path class="st2" d="M104,309.5c0,1.6-23,0.6-51.3,0.6s-51.3,1-51.3-0.6s23-14.6,51.3-14.6S104,307.8,104,309.5z"/>
<polygon class="st5" points="111.2,299.5 122.5,299.5 127.8,256 111.2,256 "/>
<path class="st3" d="M108.3,295.8h22.2l0,0c7.8,0,14.1,6.3,14.1,14.1v0.5h-36.4L108.3,295.8z"/>
<polygon class="st5" points="144.5,299.5 155.8,299.5 161.1,256 144.5,256 "/>
<path class="st3" d="M141.6,295.8h22.2l0,0c7.8,0,14.1,6.3,14.1,14.1v0.5h-36.4L141.6,295.8z"/>
<path class="st5" d="M105.3,161.8c-0.6-4.7-4.9-8-9.6-7.4c-0.5,0.1-1,0.2-1.5,0.3l-12.5-15l-11,5.4l18,21c1.7,4.4,6.7,6.7,11.1,4.9
	C103.5,169.6,105.8,165.8,105.3,161.8z"/>
<polygon class="st6" points="63.1,72.6 70.4,75.6 72.2,96.4 91.9,150.3 75.2,155.9 56.6,119.8 "/>
<circle class="st5" cx="44" cy="30" r="19.6"/>
<path class="st3" d="M40.9,20.9c0,0,0.9-11.9,11.5-7.1s9.9-8.5,6.7-10.9s-3.1-3-14.8-1.4S9.8,5.8,17.2,29.3s18.2,17.4,18.2,17.4
	s-10-21.2-4.1-17.1l5.9,4l3.1-0.7L40.9,20.9z"/>
<path class="st3" d="M11.8,163.8c0,0-6.6,34.8,18.4,39.2s61.2,7.5,61.2,7.5l16.2,75.7l21.8-1.9c0,0-2.9-91.1-10-98.2s-41-28-41-28
	L11.8,163.8z"/>
<path class="st3" d="M60.7,149.2l10.9,11c0,0,79,12.7,82.1,31c4.6,27.6,10,87.5,10,87.5l-23.8-1.8l-9.2-68.1l-38-8.6l-43.3-23.6
	L60.7,149.2z"/>
<path class="st6" d="M60.1,65l-6.4-8.4l-20.6-0.3l0,0c-13.1,7-21.3,20.6-21.3,35.5v53.3c0,0,0.3,7.1-1.3,23.4
	c-1.3,14.1,73.5-8.2,73.5-8.2l-9.7-79.2C74.3,81.1,75.1,68.5,60.1,65z"/>
</svg>
