<?xml version="1.0" encoding="utf-8"?>
<!-- Generator: Adobe Illustrator 28.0.0, SVG Export Plug-In . SVG Version: 6.00 Build 0)  -->
<svg width="47px" height="88px" version="1.1" id="waterDrop" xmlns="http://www.w3.org/2000/svg" xmlns:xlink="http://www.w3.org/1999/xlink" x="0px" y="0px"
	 viewBox="0 0 47 88" style="enable-background:new 0 0 47 88;" xml:space="preserve">
<style type="text/css">
	.waterDropPath{fill:#FCFFC0;}
</style>
<g>
	<path class="waterDropPath" d="M38.9,55.63c1.31,5.77,1.31,11.7,0,17.47c-0.04,0.18-0.1,0.35-0.17,0.52l4.94,3.09
		C45.78,73.19,47,69.06,47,64.65c0-2.72-1.04-7.16-2.67-12.47l-5.44,3.4C38.89,55.6,38.89,55.61,38.9,55.63z"/>
	<path class="waterDropPath" d="M37.96,74.75c-0.67,0.64-1.59,0.98-2.56,0.66c-1.45-0.47-2.2-2.12-1.86-3.56c1.12-4.96,1.12-10.02,0-14.97
		c-0.33-1.43,0.42-3.09,1.86-3.56c1.14-0.37,2.22,0.15,2.89,1.03l5.62-3.51C37.53,30.78,23.5-0.15,23.5-0.15S0,51.67,0,64.65
		c0,12.98,10.52,23.5,23.5,23.5c8.08,0,15.21-4.08,19.44-10.29L37.96,74.75z"/>
</g>
</svg>
